<svg xmlns="http://www.w3.org/2000/svg" viewBox="0 0 560 160" role="img" aria-label="The Binder Digital Card Catalog">
  <title>The Binder</title>
  <defs>
    <linearGradient id="binder-logo-bg" x1="0" y1="0" x2="1" y2="1">
      <stop offset="0" stop-color="#0056D6"/>
      <stop offset="1" stop-color="#FF6B35"/>
    </linearGradient>
  </defs>
  <g transform="translate(16 16)">
    <rect width="128" height="128" rx="28" fill="url(#binder-logo-bg)"/>
    <g fill="#fff">
      <rect x="22" y="39" width="24" height="12" rx="6"/>
      <rect x="22" y="82" width="24" height="12" rx="6"/>
      <path fill-rule="evenodd" d="M40 24h28a21 21 0 0 1 0 42h4a22 22 0 0 1 0 44H40V24Zm16 12v16h10a8 8 0 0 0 0-16H56Zm0 36v20h14a10 10 0 0 0 0-20H56Z"/>
    </g>
  </g>
  <text x="168" y="78" fill="#333333" font-family="Figtree, Inter, system-ui, sans-serif" font-size="42" font-weight="700">The Binder</text>
  <text x="168" y="110" fill="#333333" fill-opacity="0.55" font-family="Figtree, Inter, system-ui, sans-serif" font-size="18" font-weight="500">Digital Card Catalog</text>
</svg>
